<svg width="320" height="320" viewBox="0 0 320 320" fill="none" xmlns="http://www.w3.org/2000/svg">
<path d="M276.936 14.1421L14.1421 276.936C6.33165 284.746 6.33165 297.41 14.1421 305.22C21.9526 313.031 34.6159 313.031 42.4264 305.22L305.22 42.4264C313.031 34.6159 313.031 21.9526 305.22 14.1421C297.41 6.33165 284.746 6.33164 276.936 14.1421Z" fill="white"/>
<path d="M305.22 276.936L42.4264 14.1421C34.6159 6.33165 21.9526 6.33165 14.1421 14.1421C6.33165 21.9526 6.33164 34.6159 14.1421 42.4264L276.936 305.22C284.746 313.031 297.41 313.031 305.22 305.22C313.031 297.41 313.031 284.746 305.22 276.936Z" fill="white"/>
</svg>
