<svg width="300" height="148" viewBox="0 0 300 148" fill="none" xmlns="http://www.w3.org/2000/svg">
<path d="M285 0H15C6.71573 0 0 6.71573 0 15C0 23.2843 6.71573 30 15 30H285C293.284 30 300 23.2843 300 15C300 6.71573 293.284 0 285 0Z" fill="white"/>
<path d="M135 118H15C6.71573 118 0 124.716 0 133C0 141.284 6.71573 148 15 148H135C143.284 148 150 141.284 150 133C150 124.716 143.284 118 135 118Z" fill="white"/>
<path d="M210 59H15C6.71573 59 0 65.7157 0 74C0 82.2843 6.71573 89 15 89H210C218.284 89 225 82.2843 225 74C225 65.7157 218.284 59 210 59Z" fill="white"/>
</svg>
