<svg width="1170" height="542" viewBox="0 0 1170 542" fill="none" xmlns="http://www.w3.org/2000/svg">
<path d="M138.217 199.917C138.217 191.019 135.039 184.086 128.683 179.117C122.443 174.148 111.407 169.005 95.5752 163.689C79.7435 158.374 66.8008 153.231 56.7471 148.262C24.0436 132.199 7.69189 110.127 7.69189 82.0464C7.69189 68.0636 11.7365 55.7565 19.8257 45.125C28.0304 34.3779 39.5864 26.0576 54.4937 20.1641C69.4009 14.1549 86.1571 11.1504 104.762 11.1504C122.905 11.1504 139.141 14.3861 153.471 20.8574C167.916 27.3288 179.125 36.5736 187.099 48.5918C195.072 60.4945 199.059 74.1305 199.059 89.5H138.39C138.39 79.2152 135.212 71.2415 128.856 65.5791C122.616 59.9167 114.123 57.0854 103.375 57.0854C92.5129 57.0854 83.9036 59.5122 77.5479 64.3657C71.3076 69.1037 68.1875 75.1706 68.1875 82.5664C68.1875 89.0378 71.6543 94.9313 78.5879 100.247C85.5215 105.447 97.7131 110.879 115.163 116.541C132.612 122.088 146.942 128.097 158.151 134.568C185.423 150.285 199.059 171.952 199.059 199.571C199.059 221.643 190.739 238.977 174.098 251.573C157.458 264.169 134.634 270.467 105.629 270.467C85.1748 270.467 66.6274 266.827 49.9868 259.546C33.4618 252.151 20.9813 242.097 12.5454 229.385C4.2251 216.558 0.0649414 201.824 0.0649414 185.184H61.0806C61.0806 198.704 64.5474 208.7 71.481 215.171C78.5301 221.527 89.9128 224.705 105.629 224.705C115.683 224.705 123.598 222.567 129.376 218.292C135.27 213.9 138.217 207.776 138.217 199.917ZM302.543 185.184L333.744 79.4463H396.32L319.877 298.375L316.583 306.348C305.721 330.616 286.538 342.75 259.035 342.75C251.408 342.75 243.376 341.594 234.94 339.283V297.508H242.567C250.772 297.508 257.012 296.294 261.288 293.868C265.679 291.556 268.915 287.339 270.995 281.214L275.675 268.733L210.5 79.4463H272.902L302.543 185.184ZM401.867 171.836C401.867 142.138 408.28 118.737 421.107 101.634C433.935 84.5309 451.846 75.9795 474.843 75.9795C491.599 75.9795 505.697 82.5664 517.138 95.7402V0.75H575.727V267H523.205L520.258 246.893C508.24 262.609 492.986 270.467 474.496 270.467C452.193 270.467 434.512 261.915 421.454 244.812C408.396 227.71 401.867 203.384 401.867 171.836ZM460.282 175.477C460.282 208.758 469.989 225.398 489.403 225.398C502.346 225.398 511.591 219.967 517.138 209.104V137.688C511.822 126.595 502.693 121.048 489.75 121.048C471.723 121.048 461.958 135.608 460.456 164.729L460.282 175.477ZM662.57 79.4463L664.477 101.46C677.419 84.4731 695.273 75.9795 718.039 75.9795C737.568 75.9795 752.129 81.8153 761.72 93.4868C771.427 105.158 776.454 122.723 776.801 146.182V267H718.212V148.609C718.212 139.133 716.305 132.199 712.492 127.808C708.678 123.301 701.745 121.048 691.691 121.048C680.25 121.048 671.757 125.555 666.21 134.568V267H607.794V79.4463H662.57ZM900.045 270.467C871.271 270.467 847.986 261.915 830.189 244.812C812.393 227.594 803.495 205.233 803.495 177.73V172.876C803.495 153.694 807.02 136.764 814.069 122.088C821.234 107.412 831.634 96.0869 845.27 88.1133C858.906 80.0241 875.084 75.9795 893.805 75.9795C920.153 75.9795 940.954 84.1842 956.208 100.594C971.461 116.888 979.088 139.653 979.088 168.89V191.597H862.951C865.031 202.113 869.595 210.376 876.645 216.385C883.694 222.394 892.823 225.398 904.032 225.398C922.522 225.398 936.967 218.927 947.367 205.984L974.062 237.532C966.781 247.586 956.439 255.617 943.034 261.626C929.744 267.52 915.415 270.467 900.045 270.467ZM893.458 121.048C876.356 121.048 866.186 132.373 862.951 155.022H921.886V150.516C922.117 141.155 919.748 133.933 914.779 128.848C909.81 123.648 902.703 121.048 893.458 121.048ZM1075.29 185.184L1106.49 79.4463H1169.07L1092.63 298.375L1089.33 306.348C1078.47 330.616 1059.29 342.75 1031.78 342.75C1024.16 342.75 1016.13 341.594 1007.69 339.283V297.508H1015.32C1023.52 297.508 1029.76 296.294 1034.04 293.868C1038.43 291.556 1041.66 287.339 1043.74 281.214L1048.42 268.733L983.249 79.4463H1045.65L1075.29 185.184ZM126.645 432.836C126.645 446.703 124.073 458.975 118.93 469.652C113.786 480.329 106.462 488.565 96.957 494.359C87.5169 500.089 76.7422 502.953 64.6328 502.953C52.5234 502.953 41.7812 500.186 32.4062 494.652C23.0312 489.053 15.707 481.078 10.4336 470.727C5.22526 460.375 2.49089 448.493 2.23047 435.082V427.074C2.23047 413.142 4.76953 400.87 9.84766 390.258C14.9909 379.581 22.3151 371.345 31.8203 365.551C41.3906 359.757 52.263 356.859 64.4375 356.859C76.4818 356.859 87.224 359.724 96.6641 365.453C106.104 371.182 113.428 379.353 118.637 389.965C123.91 400.512 126.579 412.621 126.645 426.293V432.836ZM91.7812 426.879C91.7812 412.751 89.4049 402.042 84.6523 394.75C79.9648 387.393 73.2266 383.715 64.4375 383.715C47.25 383.715 38.168 396.605 37.1914 422.387L37.0938 432.836C37.0938 446.768 39.4049 457.478 44.0273 464.965C48.6497 472.452 55.5182 476.195 64.6328 476.195C73.2917 476.195 79.9648 472.517 84.6523 465.16C89.3398 457.803 91.7161 447.224 91.7812 433.422V426.879ZM240.902 448.949C240.902 465.355 237.191 478.474 229.77 488.305C222.413 498.07 212.452 502.953 199.887 502.953C190.186 502.953 182.211 499.405 175.961 492.309V541.625H143.051V395.336H173.812L174.789 405.102C181.104 397.289 189.405 393.383 199.691 393.383C212.712 393.383 222.836 398.201 230.062 407.836C237.289 417.406 240.902 430.59 240.902 447.387V448.949ZM207.992 446.898C207.992 428.148 202.523 418.773 191.586 418.773C183.773 418.773 178.565 421.573 175.961 427.172V468.773C178.826 474.633 184.099 477.562 191.781 477.562C202.263 477.562 207.667 468.513 207.992 450.414V446.898ZM306.625 502.953C290.414 502.953 277.296 498.135 267.27 488.5C257.243 478.799 252.23 466.202 252.23 450.707V447.973C252.23 437.165 254.216 427.628 258.188 419.359C262.224 411.091 268.083 404.711 275.766 400.219C283.448 395.661 292.562 393.383 303.109 393.383C317.953 393.383 329.672 398.005 338.266 407.25C346.859 416.43 351.156 429.255 351.156 445.727V458.52H285.727C286.898 464.444 289.47 469.099 293.441 472.484C297.413 475.87 302.556 477.562 308.871 477.562C319.288 477.562 327.426 473.917 333.285 466.625L348.324 484.398C344.223 490.062 338.396 494.587 330.844 497.973C323.357 501.293 315.284 502.953 306.625 502.953ZM302.914 418.773C293.279 418.773 287.549 425.154 285.727 437.914H318.93V435.375C319.06 430.102 317.725 426.033 314.926 423.168C312.126 420.238 308.122 418.773 302.914 418.773ZM428.402 425.121L417.562 424.34C407.211 424.34 400.57 427.595 397.641 434.105V501H364.73V395.336H395.59L396.664 408.91C402.198 398.559 409.913 393.383 419.809 393.383C423.324 393.383 426.384 393.773 428.988 394.555L428.402 425.121ZM496.859 501C495.688 498.852 494.646 495.694 493.734 491.527C487.68 499.145 479.216 502.953 468.344 502.953C458.383 502.953 449.919 499.958 442.953 493.969C435.987 487.914 432.504 480.329 432.504 471.215C432.504 459.757 436.736 451.098 445.199 445.238C453.663 439.379 465.967 436.449 482.113 436.449H492.27V430.883C492.27 421.182 488.07 416.332 479.672 416.332C471.859 416.332 467.953 420.173 467.953 427.855H435.043C435.043 417.634 439.372 409.333 448.031 402.953C456.755 396.573 467.855 393.383 481.332 393.383C494.809 393.383 505.453 396.671 513.266 403.246C521.078 409.822 525.082 418.839 525.277 430.297V477.074C525.408 486.775 526.905 494.197 529.77 499.34V501H496.859ZM476.254 479.516C480.355 479.516 483.741 478.637 486.41 476.879C489.145 475.121 491.098 473.135 492.27 470.922V454.027H482.699C471.241 454.027 465.512 459.171 465.512 469.457C465.512 472.452 466.521 474.893 468.539 476.781C470.557 478.604 473.129 479.516 476.254 479.516ZM713.754 501H679.672V441.625H629.184V501H594.906V358.812H629.184V415.258H679.672V358.812H713.754V501ZM729.867 447.191C729.867 436.645 731.918 427.27 736.02 419.066C740.121 410.798 746.013 404.451 753.695 400.023C761.378 395.596 770.395 393.383 780.746 393.383C796.566 393.383 809.034 398.298 818.148 408.129C827.263 417.895 831.82 431.208 831.82 448.07V449.242C831.82 465.714 827.23 478.799 818.051 488.5C808.936 498.135 796.566 502.953 780.941 502.953C765.902 502.953 753.826 498.461 744.711 489.477C735.596 480.427 730.681 468.188 729.965 452.758L729.867 447.191ZM762.777 449.242C762.777 459.008 764.307 466.169 767.367 470.727C770.427 475.284 774.952 477.562 780.941 477.562C792.66 477.562 798.65 468.546 798.91 450.512V447.191C798.91 428.246 792.855 418.773 780.746 418.773C769.743 418.773 763.786 426.944 762.875 443.285L762.777 449.242ZM909.262 489.574C902.296 498.493 892.888 502.953 881.039 502.953C869.451 502.953 860.661 499.6 854.672 492.895C848.747 486.124 845.785 476.423 845.785 463.793V395.336H878.695V463.988C878.695 473.038 883.09 477.562 891.879 477.562C899.431 477.562 904.802 474.861 907.992 469.457V395.336H941.098V501H910.238L909.262 489.574ZM1014.54 471.312C1014.54 468.513 1013.07 466.267 1010.14 464.574C1007.21 462.882 1001.64 461.124 993.441 459.301C985.238 457.478 978.467 455.102 973.129 452.172C967.79 449.177 963.721 445.564 960.922 441.332C958.122 437.1 956.723 432.25 956.723 426.781C956.723 417.081 960.727 409.105 968.734 402.855C976.742 396.54 987.224 393.383 1000.18 393.383C1014.11 393.383 1025.31 396.54 1033.77 402.855C1042.24 409.171 1046.47 417.471 1046.47 427.758H1013.46C1013.46 419.294 1009 415.062 1000.08 415.062C996.632 415.062 993.734 416.039 991.391 417.992C989.047 419.88 987.875 422.257 987.875 425.121C987.875 428.051 989.307 430.427 992.172 432.25C995.036 434.073 999.594 435.57 1005.84 436.742C1012.16 437.914 1017.69 439.314 1022.45 440.941C1038.33 446.41 1046.27 456.208 1046.27 470.336C1046.27 479.971 1041.98 487.816 1033.38 493.871C1024.85 499.926 1013.79 502.953 1000.18 502.953C991.13 502.953 983.057 501.326 975.961 498.07C968.865 494.815 963.331 490.388 959.359 484.789C955.388 479.19 953.402 473.298 953.402 467.113H984.164C984.294 471.996 985.922 475.577 989.047 477.855C992.172 480.069 996.176 481.176 1001.06 481.176C1005.55 481.176 1008.9 480.264 1011.12 478.441C1013.4 476.618 1014.54 474.242 1014.54 471.312ZM1112.88 502.953C1096.66 502.953 1083.55 498.135 1073.52 488.5C1063.49 478.799 1058.48 466.202 1058.48 450.707V447.973C1058.48 437.165 1060.47 427.628 1064.44 419.359C1068.47 411.091 1074.33 404.711 1082.02 400.219C1089.7 395.661 1098.81 393.383 1109.36 393.383C1124.2 393.383 1135.92 398.005 1144.52 407.25C1153.11 416.43 1157.41 429.255 1157.41 445.727V458.52H1091.98C1093.15 464.444 1095.72 469.099 1099.69 472.484C1103.66 475.87 1108.81 477.562 1115.12 477.562C1125.54 477.562 1133.68 473.917 1139.54 466.625L1154.57 484.398C1150.47 490.062 1144.65 494.587 1137.09 497.973C1129.61 501.293 1121.53 502.953 1112.88 502.953ZM1109.16 418.773C1099.53 418.773 1093.8 425.154 1091.98 437.914H1125.18V435.375C1125.31 430.102 1123.98 426.033 1121.18 423.168C1118.38 420.238 1114.37 418.773 1109.16 418.773Z" fill="white"/>
</svg>
